Coordinates
version=1
nRows=12
nColumns=48
inDegrees=yes

Units are S.I. units (second, meters, Newtons, ...)
Angles are in degrees.

endheader
time	pelvis_tilt	pelvis_list	pelvis_rotation	pelvis_tx	pelvis_ty	pelvis_tz	hip_flexion_r	hip_adduction_r	hip_rotation_r	knee_angle_r	knee_adduction_r	knee_rotation_r	knee_anterior_posterior_r	knee_inferior_superior_r	knee_medial_lateral_r	ankle_angle_r	subtalar_angle_r	mtp_angle_r	hip_flexion_l	hip_adduction_l	hip_rotation_l	knee_angle_l	knee_adduction_l	knee_rotation_l	knee_anterior_posterior_l	knee_inferior_superior_l	knee_medial_lateral_l	ankle_angle_l	subtalar_angle_l	mtp_angle_l	lumbar_extension	lumbar_bending	lumbar_rotation	arm_flex_r	arm_add_r	arm_rot_r	elbow_flex_r	pro_sup_r	wrist_flex_r	wrist_dev_r	arm_flex_l	arm_add_l	arm_rot_l	elbow_flex_l	pro_sup_l	wrist_flex_l	wrist_dev_l
      2.68000000	     -2.45574934	     -0.83199458	      2.66232057	     -0.22842688	      1.00595239	      0.23060256	      8.64781346	      4.21383555	     -5.91065960	    -14.06256705	      0.98440452	      4.11446608	      0.00701918	     -0.40000000	      0.00000000	     -6.18676290	      0.00000000	      0.00000000	     23.43901444	     -5.51950422	     -5.68096461	    -45.73883880	      0.98440452	      4.11446608	      0.00000000	     -0.40000000	      0.00000000	     -5.23357457	      0.00000000	      0.00000000	    -12.86301850	      3.85142329	      1.62487051	     -8.42025110	    -23.22035090	     20.45767604	     38.27630719	     78.98830301	      0.00000000	      0.00000000	    -10.87189888	    -14.21443803	     13.23996276	     38.41190885	     81.15498038	      0.00000000	      0.00000000
      2.69000000	     -2.37821545	     -0.95513126	      2.65279769	     -0.22763465	      1.00609049	      0.23088480	      8.40620757	      4.33423011	     -6.14882472	    -13.85730801	      0.98440452	      4.11446608	      0.00675166	     -0.40000000	      0.00000000	     -6.19574226	      0.00000000	      0.00000000	     23.49820221	     -5.73195698	     -5.68784299	    -45.99314937	      0.98440452	      4.11446608	      0.00000000	     -0.40000000	      0.00000000	     -5.19104218	      0.00000000	      0.00000000	    -12.82219024	      3.98349905	      1.75843209	     -8.55588501	    -23.19437709	     20.30263225	     37.62126093	     78.68518148	      0.00000000	      0.00000000	    -10.81843635	    -14.04877348	     13.03205292	     38.23198852	     80.79761978	      0.00000000	      0.00000000
      2.70000000	     -2.24129333	     -1.10354459	      2.66753348	     -0.22691713	      1.00632275	      0.23104776	      8.05423462	      4.49184473	     -6.27247362	    -13.50842393	      0.98440452	      4.11446608	      0.00631851	     -0.40000000	      0.00000000	     -6.42232353	      0.00000000	      0.00000000	     23.45028133	     -5.91174655	     -5.56366996	    -46.14600232	      0.98440452	      4.11446608	      0.00000000	     -0.40000000	      0.00000000	     -5.12306714	      0.00000000	      0.00000000	    -12.87041262	      4.17790494	      1.80384670	     -8.55508213	    -23.38082488	     20.72085906	     37.11832903	     78.94060128	      0.00000000	      0.00000000	    -10.83505963	    -14.03987859	     13.20505402	     38.22594305	     81.09666980	      0.00000000	      0.00000000
      2.71000000	     -2.17507895	     -1.23686565	      2.59886899	     -0.22631831	      1.00641051	      0.23129158	      7.85159114	      4.62262718	     -6.46902726	    -13.34324159	      0.98440452	      4.11446608	      0.00630019	     -0.40000000	      0.00000000	     -6.49963094	      0.00000000	      0.00000000	     23.55117403	     -6.08679338	     -5.42457305	    -46.39368512	      0.98440452	      4.11446608	      0.00000000	     -0.40000000	      0.00000000	     -5.17750193	      0.00000000	      0.00000000	    -12.84740019	      4.31980646	      2.03406262	     -8.61767322	    -23.34787725	     20.67645066	     36.43596794	     78.46379783	      0.00000000	      0.00000000	    -10.74522121	    -13.83051945	     13.01755813	     37.98595296	     80.43940402	      0.00000000	      0.00000000
      2.72000000	     -2.13086855	     -1.28906717	      2.61425538	     -0.22597319	      1.00654649	      0.23133962	      7.70453076	      4.64921259	     -6.59707372	    -13.16382764	      0.98440452	      4.11446608	      0.00587176	     -0.40000000	      0.00000000	     -6.60158692	      0.00000000	      0.00000000	     23.65630338	     -6.14854168	     -5.31349847	    -46.53802238	      0.98440452	      4.11446608	      0.00000000	     -0.40000000	      0.00000000	     -5.30058735	      0.00000000	      0.00000000	    -12.84309422	      4.40209728	      2.12442551	     -8.66603232	    -23.51091836	     20.79167599	     36.00470950	     79.37899262	      0.00000000	      0.00000000	    -10.69046826	    -13.75272856	     12.91336235	     37.89389518	     81.22415290	      0.00000000	      0.00000000
      2.73000000	     -2.07418304	     -1.50012100	      2.62154623	     -0.22536640	      1.00656859	      0.23143418	      7.48010885	      4.85695010	     -6.78133927	    -12.86565926	      0.98440452	      4.11446608	      0.00549296	     -0.40000000	      0.00000000	     -6.91451225	      0.00000000	      0.00000000	     23.76865451	     -6.38755981	     -5.12241309	    -46.75650996	      0.98440452	      4.11446608	      0.00000000	     -0.40000000	      0.00000000	     -5.36727152	      0.00000000	      0.00000000	    -12.82257112	      4.68109968	      2.17872848	     -8.65074399	    -23.66883270	     21.10860675	     35.56627037	     79.68032708	      0.00000000	      0.00000000	    -10.73828900	    -13.66042916	     12.87645012	     37.86878282	     81.31702810	      0.00000000	      0.00000000
      2.74000000	     -2.03473359	     -1.58869925	      2.50376714	     -0.22502549	      1.00670927	      0.23145145	      7.35044355	      4.91323231	     -6.96931856	    -12.74624143	      0.98440452	      4.11446608	      0.00537088	     -0.40000000	      0.00000000	     -6.97622995	      0.00000000	      0.00000000	     23.82890475	     -6.49818871	     -5.00565186	    -46.85625014	      0.98440452	      4.11446608	      0.00000000	     -0.40000000	      0.00000000	     -5.38231327	      0.00000000	      0.00000000	    -12.83710714	      4.83872106	      2.39845452	     -8.63204660	    -23.76154736	     21.12206057	     35.08732306	     79.37909002	      0.00000000	      0.00000000	    -10.60345963	    -13.45503555	     12.85147395	     37.58309105	     80.76758295	      0.00000000	      0.00000000
      2.75000000	     -1.95279958	     -1.73196915	      2.41876816	     -0.22440753	      1.00687133	      0.23161025	      7.08325155	      5.05665572	     -7.08696616	    -12.43470226	      0.98440452	      4.11446608	      0.00492064	     -0.40000000	      0.00000000	     -7.19082679	      0.00000000	      0.00000000	     23.78950468	     -6.69378803	     -4.89129320	    -46.87392456	      0.98440452	      4.11446608	      0.00000000	     -0.40000000	      0.00000000	     -5.41813569	      0.00000000	      0.00000000	    -12.85794993	      5.04319806	      2.49646324	     -8.56607597	    -23.94333601	     21.49812503	     34.74851726	     79.91445067	      0.00000000	      0.00000000	    -10.60841640	    -13.40677032	     13.04248595	     37.42758403	     81.09274746	      0.00000000	      0.00000000
      2.76000000	     -1.68350608	     -2.01313790	      2.40438369	     -0.22388867	      1.00727900	      0.23168588	      6.54262743	      5.36223440	     -7.17583798	    -11.93633842	      0.98440452	      4.11446608	      0.00423020	     -0.40000000	      0.00000000	     -7.60663740	      0.00000000	      0.00000000	     23.64733513	     -7.05088985	     -4.80265461	    -47.01071636	      0.98440452	      4.11446608	      0.00000000	     -0.40000000	      0.00000000	     -5.41968221	      0.00000000	      0.00000000	    -13.11289617	      5.41833353	      2.61806909	     -8.47191541	    -24.14551204	     21.83351327	     34.34787395	     80.91124551	      0.00000000	      0.00000000	    -10.65075784	    -13.24435625	     12.68886691	     37.45677954	     81.57784420	      0.00000000	      0.00000000
      2.77000000	     -1.65534516	     -2.08967256	      2.29777621	     -0.22362819	      1.00738870	      0.23168975	      6.43523019	      5.41019732	     -7.30513202	    -11.86023305	      0.98440452	      4.11446608	      0.00409439	     -0.40000000	      0.00000000	     -7.63946601	      0.00000000	      0.00000000	     23.70992845	     -7.17944115	     -4.73546495	    -47.02857401	      0.98440452	      4.11446608	      0.00000000	     -0.40000000	      0.00000000	     -5.54258430	      0.00000000	      0.00000000	    -13.12463913	      5.58171249	      2.83399347	     -8.41469266	    -24.27952484	     22.01186757	     33.99451759	     80.42718374	      0.00000000	      0.00000000	    -10.46807428	    -13.10415972	     12.92288621	     37.07917013	     80.90730968	      0.00000000	      0.00000000
      2.78000000	     -1.59902827	     -2.19457477	      2.19882984	     -0.22335549	      1.00750361	      0.23155264	      6.22091151	      5.50263134	     -7.27221638	    -11.53433593	      0.98440452	      4.11446608	      0.00346855	     -0.40000000	      0.00000000	     -7.89034179	      0.00000000	      0.00000000	     23.73364490	     -7.30021691	     -4.58461135	    -47.06816398	      0.98440452	      4.11446608	      0.00000000	     -0.40000000	      0.00000000	     -5.66081183	      0.00000000	      0.00000000	    -13.17458666	      5.80004546	      2.96496055	     -8.24331521	    -24.58489914	     22.79489256	     33.71751236	     81.25921184	      0.00000000	      0.00000000	    -10.40114216	    -13.15509865	     13.52703398	     36.93670649	     81.36482159	      0.00000000	      0.00000000
      2.79000000	     -1.55846019	     -2.28560266	      2.05139617	     -0.22312972	      1.00755156	      0.23147100	      6.12048540	      5.58851779	     -7.37324244	    -11.49000573	      0.98440452	      4.11446608	      0.00357621	     -0.40000000	      0.00000000	     -7.97142016	      0.00000000	      0.00000000	     23.74930692	     -7.43556323	     -4.53068102	    -47.06968150	      0.98440452	      4.11446608	      0.00000000	     -0.40000000	      0.00000000	     -5.72132100	      0.00000000	      0.00000000	    -13.22808399	      6.00595006	      3.14381576	     -8.13115655	    -24.67903068	     22.71566846	     33.47271218	     80.13266024	      0.00000000	      0.00000000	    -10.28874066	    -12.94582609	     13.65087534	     36.54334297	     80.23715863	      0.00000000	      0.00000000
